<svg width="14" height="14" viewBox="0 0 14 14" fill="none" xmlns="http://www.w3.org/2000/svg">
    <path d="M4.12489 7.50072H6.49989V9.87572C6.49989 9.94447 6.55614 10.0007 6.62489 10.0007H7.37489C7.44364 10.0007 7.49989 9.94447 7.49989 9.87572V7.50072H9.87489C9.94364 7.50072 9.99989 7.44447 9.99989 7.37572V6.62572C9.99989 6.55697 9.94364 6.50072 9.87489 6.50072H7.49989V4.12572C7.49989 4.05697 7.44364 4.00072 7.37489 4.00072H6.62489C6.55614 4.00072 6.49989 4.05697 6.49989 4.12572V6.50072H4.12489C4.05614 6.50072 3.99989 6.55697 3.99989 6.62572V7.37572C3.99989 7.44447 4.05614 7.50072 4.12489 7.50072Z" fill="black" fill-opacity="0.85"/>
    <path d="M12.7502 0.750244H1.25024C0.973682 0.750244 0.750244 0.973682 0.750244 1.25024V12.7502C0.750244 13.0268 0.973682 13.2502 1.25024 13.2502H12.7502C13.0268 13.2502 13.2502 13.0268 13.2502 12.7502V1.25024C13.2502 0.973682 13.0268 0.750244 12.7502 0.750244ZM12.1252 12.1252H1.87524V1.87524H12.1252V12.1252Z" fill="black" fill-opacity="0.85"/>
</svg>