<svg width="12" height="12" viewBox="0 0 12 12" fill="none" xmlns="http://www.w3.org/2000/svg">
    <g opacity="0.5">
        <path d="M8.83962 2.06621V1.03094C8.83962 0.941211 8.73649 0.891658 8.66685 0.946568L2.62935 5.66219C2.57805 5.70209 2.53655 5.75317 2.50799 5.81154C2.47944 5.86992 2.4646 5.93404 2.4646 5.99902C2.4646 6.06401 2.47944 6.12813 2.50799 6.18651C2.53655 6.24488 2.57805 6.29596 2.62935 6.33585L8.66685 11.0515C8.73783 11.1064 8.83962 11.0568 8.83962 10.9671V9.93184C8.83962 9.86621 8.80882 9.80327 8.75792 9.76309L3.93649 5.99969L8.75792 2.23496C8.80882 2.19478 8.83962 2.13184 8.83962 2.06621V2.06621Z" fill="black" fill-opacity="0.85"/>
    </g>
</svg>