<svg width="14" height="14" viewBox="0 0 14 14" fill="none" xmlns="http://www.w3.org/2000/svg">
    <path d="M7.80913 6.99929L11.9107 2.11022C11.9794 2.02897 11.9216 1.90554 11.8154 1.90554H10.5685C10.4951 1.90554 10.4248 1.93835 10.3763 1.9946L6.99351 6.02741L3.6107 1.9946C3.56382 1.93835 3.49351 1.90554 3.41851 1.90554H2.17163C2.06538 1.90554 2.00757 2.02897 2.07632 2.11022L6.17788 6.99929L2.07632 11.8883C2.06092 11.9065 2.05104 11.9286 2.04785 11.9522C2.04467 11.9757 2.04831 11.9997 2.05834 12.0213C2.06838 12.0428 2.08439 12.061 2.10447 12.0737C2.12455 12.0865 2.14786 12.0932 2.17163 12.093H3.41851C3.49195 12.093 3.56226 12.0602 3.6107 12.004L6.99351 7.97116L10.3763 12.004C10.4232 12.0602 10.4935 12.093 10.5685 12.093H11.8154C11.9216 12.093 11.9794 11.9696 11.9107 11.8883L7.80913 6.99929Z" fill="black" fill-opacity="0.65"/>
</svg>