<svg width="14" height="14" viewBox="0 0 14 14" fill="none" xmlns="http://www.w3.org/2000/svg">
    <path d="M4.62476 1.87357H4.49976C4.56851 1.87357 4.62476 1.81732 4.62476 1.74857V1.87357H9.37476V1.74857C9.37476 1.81732 9.43101 1.87357 9.49976 1.87357H9.37476V2.99857H10.4998V1.74857C10.4998 1.19701 10.0513 0.748573 9.49976 0.748573H4.49976C3.94819 0.748573 3.49976 1.19701 3.49976 1.74857V2.99857H4.62476V1.87357ZM12.4998 2.99857H1.49976C1.22319 2.99857 0.999756 3.22201 0.999756 3.49857V3.99857C0.999756 4.06732 1.05601 4.12357 1.12476 4.12357H2.06851L2.45444 12.2955C2.47944 12.8283 2.92007 13.2486 3.45288 13.2486H10.5466C11.081 13.2486 11.5201 12.8298 11.5451 12.2955L11.931 4.12357H12.8748C12.9435 4.12357 12.9998 4.06732 12.9998 3.99857V3.49857C12.9998 3.22201 12.7763 2.99857 12.4998 2.99857ZM10.4263 12.1236H3.57319L3.19507 4.12357H10.8044L10.4263 12.1236Z" fill="black" fill-opacity="0.65"/>
</svg>