<svg width="16" height="16" viewBox="0 0 16 16" fill="none" xmlns="http://www.w3.org/2000/svg">
    <path d="M10.2772 4.6715C9.85238 3.74328 9.25073 2.90072 8.5 2.19031V4.98464C9.10875 4.94709 9.70411 4.8412 10.2772 4.67152V4.6715ZM8.5 7.5H10.9846C10.9443 6.84953 10.826 6.21509 10.6361 5.60778C9.95489 5.81614 9.23933 5.94586 8.5 5.98634V7.5ZM8.5 8.5V10.0137C9.23933 10.0541 9.95489 10.1839 10.6361 10.3922C10.826 9.78491 10.9443 9.15047 10.9846 8.5H8.5ZM8.5 13.8097C9.25073 13.0993 9.85238 12.2567 10.2772 11.3285C9.70411 11.1588 9.10875 11.0529 8.5 11.0154V13.8097V13.8097ZM7.5 4.98462V2.1903C6.74927 2.90072 6.14762 3.74327 5.72283 4.6715C6.29589 4.84119 6.89125 4.94708 7.5 4.98462V4.98462ZM5.01542 7.5H7.5V5.98634C6.76067 5.94588 6.04511 5.81614 5.36389 5.60778C5.17402 6.21509 5.05566 6.84953 5.01542 7.5V7.5ZM5.36389 10.3922C6.04511 10.1839 6.76067 10.0541 7.5 10.0137V8.5H5.01542C5.05566 9.15047 5.17402 9.78491 5.36389 10.3922ZM7.5 13.8097V11.0154C6.89125 11.0529 6.29589 11.1588 5.72283 11.3285C6.14762 12.2567 6.74927 13.0993 7.5 13.8097V13.8097ZM8 1C10.3588 1 12.445 2.16666 13.7132 3.95441C14.5236 5.09677 15 6.49275 15 8C15 9.50725 14.5236 10.9032 13.7132 12.0456L13.7095 12.0426L13.7132 12.0456C12.445 13.8333 10.3588 15 8 15C5.64125 15 3.555 13.8333 2.28677 12.0456C1.47637 10.9032 1 9.50725 1 8C1 6.49275 1.47637 5.09677 2.28677 3.95441C3.555 2.16666 5.64125 1 8 1ZM6.0013 2.34106C5.15042 2.64123 4.37805 3.13063 3.7407 3.77347C4.07343 3.98332 4.42126 4.16821 4.78133 4.32662C5.10198 3.61031 5.51352 2.94356 6.0013 2.34106ZM11.2187 4.32662C11.5787 4.16821 11.9266 3.98332 12.2593 3.77347C11.622 3.13063 10.8496 2.64123 9.9987 2.34106C10.4865 2.94356 10.898 3.61031 11.2187 4.32662ZM11.9863 7.5H13.9795C13.8892 6.40578 13.5053 5.3948 12.9067 4.54605C12.484 4.82155 12.0388 5.06093 11.5758 5.26164C11.8029 5.97337 11.9438 6.72358 11.9863 7.5ZM11.5758 10.7384C12.0388 10.9391 12.484 11.1784 12.9067 11.454C13.5053 10.6052 13.8892 9.59423 13.9795 8.5H11.9863C11.9438 9.27641 11.8029 10.0266 11.5758 10.7384ZM9.9987 13.6589C10.8496 13.3588 11.622 12.8694 12.2593 12.2265C11.9266 12.0167 11.5787 11.8318 11.2187 11.6734C10.898 12.3897 10.4865 13.0564 9.9987 13.6589ZM4.78133 11.6734C4.42126 11.8318 4.07343 12.0167 3.7407 12.2265C4.37805 12.8694 5.15042 13.3588 6.0013 13.6589C5.51353 13.0564 5.10198 12.3897 4.78133 11.6734ZM4.01366 8.5H2.02053C2.11081 9.59422 2.4947 10.6052 3.09325 11.454C3.51599 11.1784 3.96121 10.9391 4.42417 10.7384C4.19709 10.0266 4.05617 9.27642 4.01366 8.5ZM3.09325 4.54605C2.4947 5.3948 2.11081 6.40577 2.02053 7.5H4.01562L4.42188 5.26562L3.09325 4.54605Z" fill="black"/>
</svg>