<svg width="12" height="12" viewBox="0 0 12 12" fill="none" xmlns="http://www.w3.org/2000/svg">
    <path d="M2.59404 9.21307C2.62083 9.21307 2.64761 9.21039 2.6744 9.20637L4.92707 8.81128C4.95386 8.80593 4.97931 8.79387 4.99806 8.77378L10.6753 3.09655C10.6877 3.08416 10.6976 3.06944 10.7043 3.05324C10.711 3.03704 10.7145 3.01967 10.7145 3.00213C10.7145 2.98459 10.711 2.96722 10.7043 2.95102C10.6976 2.93482 10.6877 2.9201 10.6753 2.90771L8.4494 0.680479C8.42395 0.655033 8.39047 0.64164 8.35431 0.64164C8.31815 0.64164 8.28466 0.655033 8.25922 0.680479L2.58199 6.35771C2.5619 6.3778 2.54984 6.40191 2.54449 6.42869L2.1494 8.68137C2.13637 8.75312 2.14102 8.82696 2.16296 8.8965C2.1849 8.96605 2.22345 9.02919 2.27529 9.08048C2.36368 9.16619 2.47484 9.21307 2.59404 9.21307V9.21307ZM3.49672 6.87736L8.35431 2.0211L9.336 3.0028L4.47841 7.85905L3.28779 8.06932L3.49672 6.87736V6.87736ZM10.9284 10.3381H1.07127C0.834218 10.3381 0.6427 10.5296 0.6427 10.7666V11.2488C0.6427 11.3077 0.690914 11.3559 0.749843 11.3559H11.2498C11.3088 11.3559 11.357 11.3077 11.357 11.2488V10.7666C11.357 10.5296 11.1655 10.3381 10.9284 10.3381Z" fill="black" fill-opacity="0.45"/>
</svg>