<svg width="48" height="48" viewBox="0 0 48 48" fill="none" xmlns="http://www.w3.org/2000/svg">
    <path d="M24 38.7773C37.2548 38.7773 48 36.4443 48 33.5663C48 30.6883 37.2548 28.3553 24 28.3553C10.7452 28.3553 0 30.6883 0 33.5663C0 36.4443 10.7452 38.7773 24 38.7773Z" fill="#F5F5F5"/>
    <path d="M41.25 19.249L33.6405 10.6865C33.2753 10.1029 32.742 9.75 32.1803 9.75H15.8198C15.258 9.75 14.7247 10.1029 14.3595 10.6858L6.75 19.2497V26.1275H41.25V19.249Z" stroke="#D9D9D9" stroke-width="0.75"/>
    <path d="M31.2097 21.6095C31.2097 20.4147 31.9553 19.4284 32.88 19.4276H41.25V32.9294C41.25 34.5098 40.26 35.8051 39.0375 35.8051H8.9625C7.74 35.8051 6.75 34.5091 6.75 32.9294V19.4276H15.12C16.0447 19.4276 16.7902 20.4125 16.7902 21.6073V21.6237C16.7902 22.8185 17.544 23.7833 18.468 23.7833H29.532C30.456 23.7833 31.2097 22.8096 31.2097 21.6148V21.6095V21.6095Z" fill="#FAFAFA" stroke="#D9D9D9" stroke-width="0.75"/>
</svg>