<svg width="48" height="48" viewBox="0 0 48 48" fill="none" xmlns="http://www.w3.org/2000/svg">
    <path d="M23.9812 3.57654C12.3891 3.57185 3 12.9562 3 24.539C3 33.6984 8.87344 41.4844 17.0531 44.3437C18.1547 44.6203 17.9859 43.8375 17.9859 43.3031V39.6703C11.625 40.4156 11.3672 36.2062 10.9406 35.5031C10.0781 34.0312 8.03906 33.6562 8.64844 32.9531C10.0969 32.2078 11.5734 33.1406 13.2844 35.6672C14.5219 37.5 16.9359 37.1906 18.1594 36.8859C18.4266 35.7844 18.9984 34.8 19.7859 34.0359C13.1953 32.8547 10.4484 28.8328 10.4484 24.0515C10.4484 21.7312 11.2125 19.5984 12.7125 17.8781C11.7562 15.0422 12.8016 12.614 12.9422 12.2531C15.6656 12.0094 18.4969 14.2031 18.7172 14.3765C20.2641 13.9594 22.0312 13.739 24.0094 13.739C25.9969 13.739 27.7687 13.9687 29.3297 14.3906C29.8594 13.9875 32.4844 12.1031 35.0156 12.3328C35.1516 12.6937 36.1734 15.0656 35.2734 17.864C36.7922 19.589 37.5656 21.7406 37.5656 24.0656C37.5656 28.8562 34.8 32.8828 28.1906 34.0453C29.2922 35.1328 29.9766 36.6422 29.9766 38.3109V43.5844C30.0141 44.0062 29.9766 44.4234 30.6797 44.4234C38.9812 41.625 44.9578 33.7828 44.9578 24.5437C44.9578 12.9562 35.5641 3.57654 23.9812 3.57654V3.57654Z" fill="black"/>
</svg>