<svg width="240" height="128" viewBox="0 0 240 128" fill="none" xmlns="http://www.w3.org/2000/svg">
    <path d="M133.617 44.5469H106.383C103.172 44.5469 100.547 47.1719 100.547 50.3828V77.6172C100.547 80.8281 103.172 83.4531 106.383 83.4531H133.617C136.828 83.4531 139.453 80.8281 139.453 77.6172V50.3828C139.453 47.1719 136.828 44.5469 133.617 44.5469ZM137.508 77.6172C137.508 79.7641 135.764 81.5078 133.617 81.5078H106.383C104.236 81.5078 102.492 79.7641 102.492 77.6172V50.3828C102.492 48.2359 104.236 46.4922 106.383 46.4922H133.617C135.764 46.4922 137.508 48.2359 137.508 50.3828V77.6172Z" fill="black" fill-opacity="0.1"/>
    <path d="M125.705 62.5422C125.33 61.8953 124.392 61.8953 124.022 62.5422L117.844 71.1906L114.028 66.4187C113.649 65.7906 112.739 65.7906 112.359 66.4187L104.578 76.1453C104.302 76.6047 104.452 77.2047 104.911 77.4812C105.37 77.7578 105.97 77.6078 106.247 77.1484L113.194 68.8094L116.616 72.9156L114.295 76.1594C114.028 76.6234 114.188 77.2187 114.652 77.4859C115.116 77.7531 115.711 77.5937 115.978 77.1297L124.861 64.9703L133.744 77.1297C133.927 77.4437 134.25 77.6172 134.588 77.6172C134.752 77.6172 134.92 77.575 135.075 77.4859C135.539 77.2187 135.699 76.6234 135.431 76.1594L125.705 62.5422ZM109.299 58.1641C110.902 58.1641 112.219 56.8516 112.219 55.2484C112.219 53.6453 110.906 52.3328 109.303 52.3328C107.7 52.3328 106.388 53.6453 106.388 55.2484C106.383 56.8516 107.695 58.1641 109.299 58.1641V58.1641Z" fill="black" fill-opacity="0.1"/>
</svg>