<svg width="14" height="15" viewBox="0 0 14 15" fill="none" xmlns="http://www.w3.org/2000/svg">
    <path d="M7.96843 9.89577C7.94494 9.8725 7.91321 9.85945 7.88015 9.85945C7.84709 9.85945 7.81536 9.8725 7.79187 9.89577L5.97625 11.7114C5.13562 12.552 3.71687 12.6411 2.78875 11.7114C1.85906 10.7817 1.94812 9.36451 2.78875 8.52389L4.60437 6.70826C4.65281 6.65983 4.65281 6.58014 4.60437 6.5317L3.9825 5.90983C3.959 5.88656 3.92728 5.87351 3.89421 5.87351C3.86115 5.87351 3.82943 5.88656 3.80593 5.90983L1.99031 7.72545C0.668433 9.04733 0.668433 11.1864 1.99031 12.5067C3.31218 13.827 5.45125 13.8286 6.77156 12.5067L8.58718 10.6911C8.63562 10.6426 8.63562 10.563 8.58718 10.5145L7.96843 9.89577ZM12.0091 2.48951C10.6872 1.16764 8.54812 1.16764 7.22781 2.48951L5.41062 4.30514C5.38736 4.32863 5.37431 4.36036 5.37431 4.39342C5.37431 4.42648 5.38736 4.45821 5.41062 4.4817L6.03093 5.10201C6.07937 5.15045 6.15906 5.15045 6.2075 5.10201L8.02312 3.28639C8.86375 2.44576 10.2825 2.3567 11.2106 3.28639C12.1403 4.21608 12.0512 5.63326 11.2106 6.47389L9.39499 8.28951C9.37173 8.31301 9.35868 8.34473 9.35868 8.3778C9.35868 8.41086 9.37173 8.44258 9.39499 8.46608L10.0169 9.08795C10.0653 9.13639 10.145 9.13639 10.1934 9.08795L12.0091 7.27233C13.3294 5.95045 13.3294 3.81139 12.0091 2.48951V2.48951ZM8.5325 5.31608C8.509 5.29281 8.47728 5.27976 8.44421 5.27976C8.41115 5.27976 8.37943 5.29281 8.35593 5.31608L4.81687 8.85358C4.79361 8.87707 4.78056 8.9088 4.78056 8.94186C4.78056 8.97492 4.79361 9.00665 4.81687 9.03014L5.43562 9.64889C5.48406 9.69733 5.56375 9.69733 5.61218 9.64889L9.14968 6.11139C9.19812 6.06295 9.19812 5.98326 9.14968 5.93483L8.5325 5.31608Z" fill="#18A0FB"/>
</svg>