<svg width="14" height="14" viewBox="0 0 14 14" fill="none" xmlns="http://www.w3.org/2000/svg">
    <g clip-path="url(#clip0_250_60)">
        <path d="M13.5 1.51753H9.925C9.15781 1.51753 8.40781 1.73784 7.7625 2.15346L7 2.64253L6.2375 2.15346C5.59283 1.73792 4.84199 1.51712 4.075 1.51753H0.5C0.223437 1.51753 0 1.74096 0 2.01753V10.8925C0 11.1691 0.223437 11.3925 0.5 11.3925H4.075C4.84219 11.3925 5.59219 11.6128 6.2375 12.0285L6.93125 12.4753C6.95156 12.4878 6.975 12.4957 6.99844 12.4957C7.02187 12.4957 7.04531 12.4894 7.06563 12.4753L7.75937 12.0285C8.40625 11.6128 9.15781 11.3925 9.925 11.3925H13.5C13.7766 11.3925 14 11.1691 14 10.8925V2.01753C14 1.74096 13.7766 1.51753 13.5 1.51753ZM4.075 10.2675H1.125V2.64253H4.075C4.62812 2.64253 5.16562 2.80034 5.62969 3.09878L6.39219 3.58784L6.5 3.65815V10.8769C5.75625 10.4769 4.925 10.2675 4.075 10.2675ZM12.875 10.2675H9.925C9.075 10.2675 8.24375 10.4769 7.5 10.8769V3.65815L7.60781 3.58784L8.37031 3.09878C8.83438 2.80034 9.37188 2.64253 9.925 2.64253H12.875V10.2675ZM5.20156 4.64253H2.29844C2.2375 4.64253 2.1875 4.69565 2.1875 4.75971V5.46284C2.1875 5.5269 2.2375 5.58003 2.29844 5.58003H5.2C5.26094 5.58003 5.31094 5.5269 5.31094 5.46284V4.75971C5.3125 4.69565 5.2625 4.64253 5.20156 4.64253ZM8.6875 4.75971V5.46284C8.6875 5.5269 8.7375 5.58003 8.79844 5.58003H11.7C11.7609 5.58003 11.8109 5.5269 11.8109 5.46284V4.75971C11.8109 4.69565 11.7609 4.64253 11.7 4.64253H8.79844C8.7375 4.64253 8.6875 4.69565 8.6875 4.75971ZM5.20156 6.83003H2.29844C2.2375 6.83003 2.1875 6.88315 2.1875 6.94721V7.65034C2.1875 7.7144 2.2375 7.76753 2.29844 7.76753H5.2C5.26094 7.76753 5.31094 7.7144 5.31094 7.65034V6.94721C5.3125 6.88315 5.2625 6.83003 5.20156 6.83003ZM11.7016 6.83003H8.79844C8.7375 6.83003 8.6875 6.88315 8.6875 6.94721V7.65034C8.6875 7.7144 8.7375 7.76753 8.79844 7.76753H11.7C11.7609 7.76753 11.8109 7.7144 11.8109 7.65034V6.94721C11.8125 6.88315 11.7625 6.83003 11.7016 6.83003Z" fill="black" fill-opacity="0.45"/>
    </g>
    <defs>
        <clipPath id="clip0_250_60">
            <rect width="14" height="14" fill="white"/>
        </clipPath>
    </defs>
</svg>