<svg width="15" height="16" viewBox="0 0 15 16" fill="none" xmlns="http://www.w3.org/2000/svg">
    <path d="M7.5 1.4375C3.87598 1.4375 0.9375 4.37598 0.9375 8C0.9375 11.624 3.87598 14.5625 7.5 14.5625C11.124 14.5625 14.0625 11.624 14.0625 8C14.0625 4.37598 11.124 1.4375 7.5 1.4375ZM7.5 13.4492C4.49121 13.4492 2.05078 11.0088 2.05078 8C2.05078 4.99121 4.49121 2.55078 7.5 2.55078C10.5088 2.55078 12.9492 4.99121 12.9492 8C12.9492 11.0088 10.5088 13.4492 7.5 13.4492Z" fill="#18A0FB"/>
    <path d="M6.79665 5.42187C6.79665 5.60836 6.87072 5.7872 7.00259 5.91906C7.13445 6.05092 7.31329 6.125 7.49977 6.125C7.68625 6.125 7.86509 6.05092 7.99695 5.91906C8.12882 5.7872 8.2029 5.60836 8.2029 5.42187C8.2029 5.23539 8.12882 5.05655 7.99695 4.92469C7.86509 4.79283 7.68625 4.71875 7.49977 4.71875C7.31329 4.71875 7.13445 4.79283 7.00259 4.92469C6.87072 5.05655 6.79665 5.23539 6.79665 5.42187ZM7.85133 7.0625H7.14821C7.08376 7.0625 7.03102 7.11523 7.03102 7.17969V11.1641C7.03102 11.2285 7.08376 11.2812 7.14821 11.2812H7.85133C7.91579 11.2812 7.96852 11.2285 7.96852 11.1641V7.17969C7.96852 7.11523 7.91579 7.0625 7.85133 7.0625Z" fill="#18A0FB"/>
</svg>