<svg width="12" height="12" viewBox="0 0 12 12" fill="none" xmlns="http://www.w3.org/2000/svg">
    <path d="M10.4985 7.07185H1.17846C1.11953 7.07185 1.07131 7.12006 1.07131 7.17899V7.98256C1.07131 8.04149 1.11953 8.0897 1.17846 8.0897H9.28382L7.35123 10.5406C7.29632 10.6102 7.34587 10.7147 7.4356 10.7147H8.40658C8.47221 10.7147 8.53381 10.6852 8.57533 10.633L10.836 7.7656C11.057 7.48435 10.8575 7.07185 10.4985 7.07185V7.07185ZM10.8213 3.91113H2.71596L4.64855 1.46024C4.70346 1.3906 4.6539 1.28613 4.56417 1.28613H3.59319C3.52756 1.28613 3.46596 1.3156 3.42444 1.36783L1.16372 4.23524C0.942742 4.51649 1.1423 4.92899 1.49988 4.92899H10.8213C10.8802 4.92899 10.9285 4.88078 10.9285 4.82185V4.01828C10.9285 3.95935 10.8802 3.91113 10.8213 3.91113Z" fill="black" fill-opacity="0.85"/>
</svg>