<svg width="14" height="14" viewBox="0 0 14 14" fill="none" xmlns="http://www.w3.org/2000/svg">
    <path d="M4.62476 1.87358H4.49976C4.56851 1.87358 4.62476 1.81733 4.62476 1.74858V1.87358H9.37476V1.74858C9.37476 1.81733 9.43101 1.87358 9.49976 1.87358H9.37476V2.99858H10.4998V1.74858C10.4998 1.19702 10.0513 0.748581 9.49976 0.748581H4.49976C3.94819 0.748581 3.49976 1.19702 3.49976 1.74858V2.99858H4.62476V1.87358ZM12.4998 2.99858H1.49976C1.22319 2.99858 0.999756 3.22202 0.999756 3.49858V3.99858C0.999756 4.06733 1.05601 4.12358 1.12476 4.12358H2.06851L2.45444 12.2955C2.47944 12.8283 2.92007 13.2486 3.45288 13.2486H10.5466C11.081 13.2486 11.5201 12.8298 11.5451 12.2955L11.931 4.12358H12.8748C12.9435 4.12358 12.9998 4.06733 12.9998 3.99858V3.49858C12.9998 3.22202 12.7763 2.99858 12.4998 2.99858ZM10.4263 12.1236H3.57319L3.19507 4.12358H10.8044L10.4263 12.1236Z" fill="black" fill-opacity="0.85"/>
</svg>