<svg width="56" height="56" viewBox="0 0 56 56" fill="none" xmlns="http://www.w3.org/2000/svg">
    <path d="M45.5904 14.5308L34.5422 3.48259C34.2341 3.17455 33.8183 3 33.3819 3H11.573C10.6643 3 9.93011 3.73415 9.93011 4.64286V47.3571C9.93011 48.2658 10.6643 49 11.573 49H44.4301C45.3388 49 46.073 48.2658 46.073 47.3571V15.6962C46.073 15.2598 45.8984 14.8388 45.5904 14.5308ZM42.2841 16.4509H32.6221V6.78884L42.2841 16.4509ZM42.3765 45.3036H13.6265V6.69643H29.131V17.7857C29.131 18.3576 29.3582 18.906 29.7626 19.3104C30.1669 19.7148 30.7154 19.942 31.2873 19.942H42.3765V45.3036Z" fill="#333333"/>
    <path d="M33.1882 51.3501L30.7681 30.7788C30.6661 29.9114 31.6469 29.3392 32.3518 29.8549L48.8636 41.9367C49.6073 42.481 49.2814 43.6562 48.3636 43.7397L40.4689 44.4574C40.1719 44.4844 39.9025 44.6425 39.7341 44.8886L35.0067 51.7979C34.4848 52.5606 33.2962 52.2679 33.1882 51.3501Z" fill="#333333"/>
    <path fill-rule="evenodd" clip-rule="evenodd" d="M40.4689 44.4574C40.1719 44.4844 39.9025 44.6425 39.7341 44.8886L35.0067 51.7979C34.4848 52.5606 33.2962 52.2679 33.1882 51.35L30.7681 30.7788C30.6661 29.9114 31.6469 29.3392 32.3518 29.8549L48.8636 41.9367C49.6073 42.481 49.2814 43.6562 48.3636 43.7397L40.4689 44.4574ZM30.7054 51.6422L28.2852 31.0709C27.9281 28.0351 31.3611 26.0323 33.828 27.8374L50.3398 39.9192C52.9431 41.824 51.8024 45.9374 48.5899 46.2294L41.3986 46.8832L37.07 53.2096C35.2434 55.8792 31.0833 54.8546 30.7054 51.6422Z" fill="white" fill-opacity="0.9"/>
</svg>