<svg width="15" height="15" viewBox="0 0 15 15" fill="none" xmlns="http://www.w3.org/2000/svg">
    <g clip-path="url(#clip0_147_100)">
        <path d="M12.0888 4.50804L9.20667 1.62589C9.12631 1.54554 9.01783 1.5 8.90399 1.5H3.2147C2.97765 1.5 2.78613 1.69152 2.78613 1.92857V13.0714C2.78613 13.3085 2.97765 13.5 3.2147 13.5H11.7861C12.0232 13.5 12.2147 13.3085 12.2147 13.0714V4.81205C12.2147 4.69821 12.1692 4.58839 12.0888 4.50804ZM11.2263 5.00893H8.70578V2.48839L11.2263 5.00893ZM11.2504 12.5357H3.75042V2.46429H7.79506V5.35714C7.79506 5.50633 7.85433 5.6494 7.95981 5.75489C8.0653 5.86038 8.20838 5.91964 8.35756 5.91964H11.2504V12.5357Z" fill="black" fill-opacity="0.85"/>
    </g>
    <defs>
        <clipPath id="clip0_147_100">
            <rect width="12" height="12" fill="white" transform="translate(1.5 1.5)"/>
        </clipPath>
    </defs>
</svg>