<svg width="14" height="14" viewBox="0 0 14 14" fill="none" xmlns="http://www.w3.org/2000/svg">
    <path d="M13.2048 2.27031L12.3236 2.95938C11.122 1.42344 9.25325 0.4375 7.15482 0.4375C3.53138 0.4375 0.598565 3.36719 0.593878 6.99219C0.58919 10.6203 3.52825 13.5625 7.15482 13.5625C9.98763 13.5625 12.4017 11.7656 13.3204 9.24844C13.3439 9.18281 13.3095 9.10938 13.2439 9.0875L12.3579 8.78281C12.3271 8.77223 12.2932 8.77415 12.2638 8.78816C12.2343 8.80218 12.2114 8.82718 12.2001 8.85781C12.172 8.93594 12.1408 9.01406 12.1079 9.09063C11.8376 9.73125 11.4501 10.3063 10.9564 10.8C10.4666 11.2907 9.88673 11.6822 9.24857 11.9531C8.58763 12.2328 7.88294 12.375 7.15794 12.375C6.43138 12.375 5.72825 12.2328 5.06731 11.9531C4.42853 11.6834 3.84844 11.2917 3.3595 10.8C2.86841 10.3103 2.47729 9.72972 2.20794 9.09063C1.92825 8.42813 1.78607 7.725 1.78607 6.99844C1.78607 6.27188 1.92825 5.56875 2.20794 4.90625C2.47825 4.26563 2.86575 3.69063 3.3595 3.19688C3.85325 2.70313 4.42825 2.31563 5.06731 2.04375C5.72825 1.76406 6.43294 1.62188 7.15794 1.62188C7.8845 1.62188 8.58763 1.76406 9.24857 2.04375C9.88735 2.31351 10.4674 2.70519 10.9564 3.19688C11.1111 3.35156 11.2564 3.51563 11.3908 3.6875L10.4501 4.42188C10.4315 4.43627 10.4173 4.45563 10.4092 4.47772C10.4011 4.49981 10.3995 4.52374 10.4043 4.54676C10.4092 4.56977 10.4205 4.59094 10.4369 4.60782C10.4533 4.6247 10.4741 4.63661 10.497 4.64219L13.2408 5.31406C13.3189 5.33281 13.3954 5.27344 13.3954 5.19375L13.4079 2.36719C13.4064 2.26406 13.2861 2.20625 13.2048 2.27031V2.27031Z" fill="black" fill-opacity="0.85"/>
</svg>