<svg width="14" height="14" viewBox="0 0 14 14" fill="none" xmlns="http://www.w3.org/2000/svg">
    <g clip-path="url(#clip0_132_42)">
        <path d="M13.4498 8.77885L12.4264 7.90385C12.4748 7.60697 12.4998 7.30384 12.4998 7.00072C12.4998 6.6976 12.4748 6.39447 12.4264 6.0976L13.4498 5.2226C13.527 5.15651 13.5823 5.06849 13.6082 4.97025C13.6342 4.872 13.6296 4.76818 13.5951 4.6726L13.5811 4.63197C13.2993 3.84451 12.8774 3.11453 12.3358 2.47728L12.3076 2.44447C12.2419 2.36721 12.1544 2.31167 12.0565 2.28517C11.9586 2.25867 11.8549 2.26246 11.7592 2.29603L10.4889 2.7476C10.0201 2.36322 9.49671 2.0601 8.93108 1.8476L8.68577 0.51947C8.66726 0.419536 8.61879 0.327599 8.54678 0.255873C8.47478 0.184147 8.38265 0.136028 8.28265 0.117908L8.24046 0.110095C7.4264 -0.0367798 6.57015 -0.0367798 5.75608 0.110095L5.7139 0.117908C5.61389 0.136028 5.52177 0.184147 5.44976 0.255873C5.37776 0.327599 5.32928 0.419536 5.31077 0.51947L5.0639 1.85385C4.50278 2.06639 3.98025 2.36935 3.51702 2.75072L2.23733 2.29603C2.14165 2.26219 2.03794 2.25827 1.93998 2.28478C1.84202 2.3113 1.75444 2.36699 1.68889 2.44447L1.66077 2.47728C1.11975 3.11498 0.69792 3.84484 0.415457 4.63197L0.401395 4.6726C0.331082 4.86791 0.388895 5.08666 0.546707 5.2226L1.58264 6.10697C1.53421 6.40072 1.51077 6.70072 1.51077 6.99916C1.51077 7.29916 1.53421 7.59916 1.58264 7.89135L0.546707 8.77572C0.469513 8.8418 0.414264 8.92982 0.388307 9.02807C0.36235 9.12631 0.366915 9.23013 0.401395 9.32572L0.415457 9.36635C0.69827 10.1538 1.11702 10.8804 1.66077 11.521L1.68889 11.5538C1.7546 11.6311 1.84218 11.6866 1.94009 11.7131C2.03799 11.7396 2.14162 11.7359 2.23733 11.7023L3.51702 11.2476C3.98265 11.6304 4.50296 11.9335 5.0639 12.1445L5.31077 13.4788C5.32928 13.5788 5.37776 13.6707 5.44976 13.7424C5.52177 13.8142 5.61389 13.8623 5.7139 13.8804L5.75608 13.8882C6.57763 14.0359 7.41892 14.0359 8.24046 13.8882L8.28265 13.8804C8.38265 13.8623 8.47478 13.8142 8.54678 13.7424C8.61879 13.6707 8.66726 13.5788 8.68577 13.4788L8.93108 12.1507C9.49648 11.9388 10.0229 11.6347 10.4889 11.2507L11.7592 11.7023C11.8549 11.7361 11.9586 11.74 12.0566 11.7135C12.1545 11.687 12.2421 11.6313 12.3076 11.5538L12.3358 11.521C12.8795 10.8788 13.2983 10.1538 13.5811 9.36635L13.5951 9.32572C13.6655 9.13353 13.6076 8.91478 13.4498 8.77885ZM11.317 6.28197C11.3561 6.51791 11.3764 6.7601 11.3764 7.00228C11.3764 7.24447 11.3561 7.48666 11.317 7.72259L11.2139 8.34916L12.3811 9.3476C12.2041 9.75523 11.9808 10.1411 11.7155 10.4976L10.2655 9.98353L9.77483 10.3867C9.4014 10.6929 8.98577 10.9335 8.53577 11.1023L7.94046 11.3257L7.66077 12.8413C7.21947 12.8913 6.77394 12.8913 6.33264 12.8413L6.05296 11.3226L5.46233 11.096C5.01702 10.9273 4.60296 10.6867 4.23265 10.382L3.74202 9.97728L2.28265 10.496C2.01702 10.1382 1.79514 9.75228 1.61702 9.34603L2.79671 8.33822L2.69515 7.71322C2.65765 7.48041 2.63733 7.23978 2.63733 7.00228C2.63733 6.76322 2.65608 6.52416 2.69515 6.29135L2.79671 5.66635L1.61702 4.65853C1.79358 4.25072 2.01702 3.86634 2.28265 3.50853L3.74202 4.02728L4.23265 3.6226C4.60296 3.31791 5.01702 3.07728 5.46233 2.90853L6.05452 2.6851L6.33421 1.16635C6.77327 1.11635 7.22171 1.11635 7.66233 1.16635L7.94202 2.68197L8.53733 2.90541C8.98577 3.07416 9.40296 3.31478 9.7764 3.62103L10.267 4.02416L11.717 3.5101C11.9826 3.86791 12.2045 4.25385 12.3826 4.6601L11.2155 5.65853L11.317 6.28197ZM6.99983 4.09603C5.48108 4.09603 4.24983 5.32728 4.24983 6.84603C4.24983 8.36478 5.48108 9.59603 6.99983 9.59603C8.51858 9.59603 9.74983 8.36478 9.74983 6.84603C9.74983 5.32728 8.51858 4.09603 6.99983 4.09603ZM8.23733 8.08353C8.07502 8.24631 7.88213 8.37539 7.66975 8.46334C7.45738 8.5513 7.2297 8.59639 6.99983 8.59603C6.53265 8.59603 6.09358 8.41322 5.76233 8.08353C5.59956 7.92122 5.47048 7.72833 5.38252 7.51595C5.29457 7.30358 5.24947 7.0759 5.24983 6.84603C5.24983 6.37885 5.43264 5.93978 5.76233 5.60853C6.09358 5.27728 6.53265 5.09603 6.99983 5.09603C7.46702 5.09603 7.90608 5.27728 8.23733 5.60853C8.40011 5.77084 8.52919 5.96373 8.61714 6.17611C8.7051 6.38849 8.75019 6.61616 8.74983 6.84603C8.74983 7.31322 8.56702 7.75228 8.23733 8.08353Z" fill="black" fill-opacity="0.85"/>
    </g>
    <defs>
        <clipPath id="clip0_132_42">
            <rect width="14" height="14" fill="white"/>
        </clipPath>
    </defs>
</svg>